<?xml version="1.0" standalone="no"?>
<!DOCTYPE svg PUBLIC "-//W3C//DTD SVG 20010904//EN"
 "http://www.w3.org/TR/2001/REC-SVG-20010904/DTD/svg10.dtd">
<svg version="1.0" xmlns="http://www.w3.org/2000/svg"
 width="260.000000pt" height="260.000000pt" viewBox="0 0 260.000000 260.000000"
 preserveAspectRatio="xMidYMid meet">
<metadata>
Created by potrace 1.11, written by Peter Selinger 2001-2013
</metadata>
<g transform="translate(0.000000,260.000000) scale(0.100000,-0.100000)"
fill="#000000" stroke="none">
<path d="M1123 2513 c-23 -8 -65 -34 -92 -59 l-49 -44 -396 0 -396 0 0 -345
c0 -190 -4 -345 -8 -345 -18 0 -86 -77 -105 -120 -46 -101 -12 -243 74 -312
l39 -31 2 -551 3 -551 130 -3 129 -3 39 -39 c61 -64 109 -85 197 -85 88 0 132
20 195 84 l39 41 768 0 768 0 0 1130 0 1130 -513 0 -514 0 -41 39 c-46 44
-134 81 -190 80 -20 0 -56 -7 -79 -16z m145 -153 c122 -75 33 -255 -103 -210
-93 31 -101 170 -13 213 44 22 76 21 116 -3z m1042 -1080 l0 -980 -675 -2
-675 -3 -6 35 c-16 87 -86 175 -161 202 l-33 12 0 283 0 283 80 0 c79 0 81 -1
141 -45 79 -58 148 -78 248 -73 86 4 163 34 223 87 l36 31 121 0 121 0 0 -104
0 -104 -54 -31 c-91 -51 -136 -128 -136 -233 1 -152 111 -261 265 -262 59 0
79 4 123 29 120 65 170 198 126 328 -19 57 -87 130 -137 148 l-37 13 0 183 0
183 -156 0 c-151 0 -155 1 -149 20 12 37 6 155 -10 199 -8 24 -24 58 -35 76
-15 24 -20 50 -20 99 l0 66 108 0 108 0 16 -34 c66 -137 233 -197 366 -130
119 59 177 201 133 328 -17 49 -82 121 -136 149 -55 29 -173 30 -230 2 -50
-25 -106 -80 -128 -128 l-18 -37 -182 -2 -182 -3 -3 -78 c-2 -66 -5 -78 -18
-73 -9 3 -27 9 -40 12 -24 6 -24 7 -24 140 l0 134 34 14 c79 33 145 120 160
211 l7 40 414 -3 415 -2 0 -980z m-1366 939 c14 -86 75 -167 153 -201 l43 -19
0 -133 0 -133 -42 -12 c-56 -16 -140 -71 -175 -116 l-28 -35 -157 0 -156 0
-31 54 c-35 62 -95 109 -165 128 l-46 12 0 248 0 248 299 0 298 0 7 -41z
m1124 -343 c32 -30 37 -40 37 -79 0 -146 -208 -167 -232 -24 -12 75 43 137
120 137 29 0 46 -8 75 -34z m-1688 -281 c121 -62 38 -250 -94 -214 -64 18 -97
82 -77 150 21 69 103 99 171 64z m939 -21 c173 -87 171 -336 -4 -427 -53 -27
-155 -29 -208 -3 -122 60 -170 199 -113 322 56 121 201 169 325 108z m-487
-197 c-2 -24 1 -60 6 -80 l10 -37 -114 0 -114 0 0 -354 0 -353 -57 -34 c-71
-42 -118 -102 -133 -171 l-12 -53 -39 3 -39 4 0 464 0 464 23 0 c63 1 163 74
197 145 l22 45 126 0 127 0 -3 -43z m1023 -631 c93 -39 83 -188 -14 -217 -50
-15 -86 -6 -122 31 -24 23 -29 37 -29 75 0 57 12 80 53 105 38 24 66 25 112 6z
m-1092 -367 c86 -66 37 -209 -71 -209 -118 0 -166 147 -70 214 33 23 109 21
141 -5z"/>
</g>
</svg>
